<svg xmlns="http://www.w3.org/2000/svg" viewBox="0 0 1226.17 1226.17"><defs><style>.cls-1{fill:none;stroke:#fff;stroke-linecap:round;stroke-linejoin:round;stroke-width:102.18px;}</style></defs><g id="Layer_2" data-name="Layer 2"><g id="Layer_3" data-name="Layer 3"><path class="cls-1" d="M916.56,916.56a514.52,514.52,0,0,1-303.48,105.25c-357.63,0-562-408.73-562-408.73A942.52,942.52,0,0,1,309.61,309.61m196.19-93a466.22,466.22,0,0,1,107.28-12.26c357.64,0,562,408.72,562,408.72a944.52,944.52,0,0,1-110.36,163M721.4,721.4a153.27,153.27,0,0,1-224.27-209c2.45-2.64,5-5.19,7.64-7.65"/><line class="cls-1" x1="51.09" y1="51.09" x2="1175.08" y2="1175.08"/></g></g></svg>